<svg width="84" height="84" viewBox="0 0 84 84" fill="none" xmlns="http://www.w3.org/2000/svg">
<g clip-path="url(#clip0_605_872)">
<path d="M83.9549 52.1548C83.7457 47.342 82.9087 42.0061 81.6532 36.984C80.3976 32.1713 78.8283 27.6724 76.945 24.2197C69.6212 11.3508 61.6697 13.3386 52.1487 15.8497C49.1146 16.582 45.8712 17.419 42.5232 17.7329H41.4769C38.1289 17.419 34.8855 16.582 31.8513 15.8497C22.3304 13.4433 14.3789 11.3508 7.05507 24.3243C5.17181 27.777 3.4978 32.2759 2.34691 37.0887C1.09141 42.1107 0.254401 47.4466 0.0451494 52.2594C-0.164102 57.5953 0.359026 61.4664 1.50991 64.1867C2.66079 66.6977 4.3348 68.2671 6.53194 68.8949C8.51983 69.418 10.8216 69.2087 13.228 68.1625C17.3084 66.4885 22.0165 62.9312 26.6201 58.6415C29.8635 55.5028 35.9317 53.9334 42 53.9334C48.0683 53.9334 54.1366 55.5028 57.38 58.6415C61.9835 62.9312 66.6917 66.4885 70.7721 68.1625C73.1785 69.1041 75.4802 69.418 77.4681 68.8949C79.5606 68.2671 81.3393 66.8023 82.4902 64.0821C83.641 61.4664 84.1642 57.5953 83.9549 52.1548ZM78.9329 62.6173C78.3051 64.0821 77.4681 64.9191 76.4219 65.233C75.271 65.5468 73.8062 65.3376 72.1322 64.7098C68.4703 63.2451 64.1807 60.0017 59.9956 56.0259C56.0199 52.0501 49.01 50.0622 42 50.0622C34.9901 50.0622 27.9802 52.0501 23.8998 55.8167C19.6101 59.7924 15.3205 63.1404 11.7632 64.5006C10.0892 65.1283 8.62445 65.4422 7.47357 65.0237C6.42731 64.7098 5.59031 63.8728 4.96255 62.4081C4.12555 60.4202 3.70705 57.1768 3.9163 52.364C4.12555 47.8651 4.85793 42.7384 6.11344 37.9257C7.26432 33.4268 8.72908 29.2417 10.5077 26.103C16.2621 15.745 22.9582 17.419 30.9097 19.5116C34.1531 20.3486 37.5011 21.1856 41.163 21.4994H42.7324C46.4989 21.1856 49.847 20.3486 53.0904 19.5116C61.0419 17.5237 67.7379 15.745 73.4923 26.103C75.271 29.2417 76.7357 33.3221 77.8866 37.9257C79.0375 42.7384 79.8745 47.7605 80.0838 52.364C80.293 57.1768 79.8745 60.4202 78.9329 62.6173Z" fill="white"/>
<path d="M32.3745 31.7527C31.3282 30.8111 30.0727 30.0787 28.608 29.9741C28.5033 28.614 27.8756 27.2538 26.9339 26.3122L26.8293 26.2076C25.6784 25.0567 24.2137 24.429 22.5397 24.429C20.8657 24.429 19.2963 25.1613 18.25 26.2076C17.3084 27.1492 16.576 28.5094 16.4714 29.9741C15.0066 30.0787 13.7511 30.7065 12.7049 31.6481L12.6002 31.7527C11.4493 32.9036 10.8216 34.3684 10.8216 36.0424C10.8216 37.7164 11.554 39.2858 12.6002 40.3321C13.6465 41.3783 14.902 42.0061 16.4714 42.1107C16.576 43.5754 17.2038 44.9356 18.25 45.8772C19.4009 47.0281 20.8657 47.6558 22.5397 47.6558C24.2137 47.6558 25.7831 46.9235 26.8293 45.8772C27.7709 44.831 28.5033 43.5754 28.608 42.1107C30.0727 42.0061 31.4328 41.3783 32.3745 40.3321C33.5254 39.1812 34.1531 37.7164 34.1531 36.0424C34.1531 34.3684 33.4207 32.799 32.3745 31.7527ZM29.7588 37.6118C29.3403 38.0303 28.8172 38.2395 28.1894 38.2395H26.7247C25.6784 38.2395 24.7368 39.0765 24.7368 40.2274V41.5876C24.7368 42.2153 24.5276 42.7384 24.109 43.1569C23.6905 43.5754 23.1674 43.7847 22.5397 43.7847C21.9119 43.7847 21.3888 43.5754 20.9703 43.1569C20.5518 42.7384 20.3425 42.2153 20.3425 41.5876V40.1228C20.3425 39.0765 19.5055 38.1349 18.3546 38.1349H16.8899C16.2621 38.1349 15.739 37.9257 15.3205 37.5072C15.0066 37.1933 14.6927 36.6702 14.6927 36.0424C14.6927 35.4146 14.902 34.8915 15.3205 34.473L15.4251 34.3684C15.8436 34.0545 16.3668 33.8453 16.8899 33.8453H18.3546C19.4009 33.8453 20.3425 33.0083 20.3425 31.8574V30.3926C20.3425 29.7649 20.5518 29.2417 20.9703 28.8232C21.3888 28.4047 21.9119 28.1955 22.5397 28.1955C23.1674 28.1955 23.6905 28.4047 24.109 28.8232L24.2137 28.9279C24.5276 29.3464 24.7368 29.8695 24.7368 30.3926V31.8574C24.7368 32.9036 25.5738 33.8453 26.7247 33.8453H28.1894C28.8172 33.8453 29.3403 34.0545 29.7588 34.473C30.1773 34.8915 30.3866 35.4146 30.3866 36.0424C30.3866 36.6702 30.1773 37.1933 29.7588 37.6118Z" fill="white"/>
<path d="M60.2049 32.2759C62.2273 32.2759 63.8668 30.6365 63.8668 28.614C63.8668 26.5916 62.2273 24.9521 60.2049 24.9521C58.1825 24.9521 56.543 26.5916 56.543 28.614C56.543 30.6365 58.1825 32.2759 60.2049 32.2759Z" fill="white"/>
<path d="M60.2049 47.1326C62.2273 47.1326 63.8668 45.4931 63.8668 43.4707C63.8668 41.4483 62.2273 39.8088 60.2049 39.8088C58.1825 39.8088 56.543 41.4483 56.543 43.4707C56.543 45.4931 58.1825 47.1326 60.2049 47.1326Z" fill="white"/>
<path d="M52.7765 39.7044C54.7989 39.7044 56.4384 38.0649 56.4384 36.0425C56.4384 34.0201 54.7989 32.3806 52.7765 32.3806C50.7541 32.3806 49.1146 34.0201 49.1146 36.0425C49.1146 38.0649 50.7541 39.7044 52.7765 39.7044Z" fill="white"/>
<path d="M67.6333 39.7044C69.6557 39.7044 71.2952 38.0649 71.2952 36.0425C71.2952 34.0201 69.6557 32.3806 67.6333 32.3806C65.6109 32.3806 63.9714 34.0201 63.9714 36.0425C63.9714 38.0649 65.6109 39.7044 67.6333 39.7044Z" fill="white"/>
</g>
<defs>
<clipPath id="clip0_605_872">
<rect width="84" height="84" fill="white"/>
</clipPath>
</defs>
</svg>
